<svg clip-rule="evenodd" fill-rule="evenodd" stroke-linejoin="round" stroke-miterlimit="1.414" viewBox="0 0 1485 1064" xmlns="http://www.w3.org/2000/svg">
  <g fill="#a7a9ac" fill-rule="nonzero">
    <path d="M458.177 740.504c-23.146-6.721-44.967-5.967-61.183-3.417 6.762-15.02 15.741-29.02 26.279-41.675a194.333 194.333 0 0 1 17.612-18.542c.53-.487 5.813-4.746 1.88-4.354-1.859.183-4.934 3.333-6.417 4.413-46.113 33.691-58.834 69.17-60.1 72.875-1.121 3.291-1.821 7.15-4.659 9.454-7.504 6.1-18.27-2.604-14.004-11.25 2.325-4.613 4.867-9.08 7.542-13.459-22.183-45.379-63.671-50.962-93.875-47.966 2.7-2.467 5.45-4.888 8.25-7.242 23.246-19.537 51.317-33.192 79.97-42.737a279.877 279.877 0 0 1 20.755-6.017c3.633-.904 7.262-1.8 10.93-2.567 2.15-.45 5.112-.583 7.124-1.504 1.092-.5 2.767-1.262.575-2.112-.82-.321-3.092.42-3.912.533-6.242.854-12.45 1.8-18.646 2.946-30.271 5.596-59.871 15.796-86.55 31.22-34.35 19.859-48.196 38.534-50.838 42.088-3.083 4.163-6.325 10.983-12.9 9.571-6.937-1.488-8.767-7.508-4.137-12.883 3.116-3.625 6.333-7.117 9.595-10.546-30.075-60.95-91.129-80.834-140.216-86.342a626.715 626.715 0 0 1 30.887-9.083c48.03-12.763 96.913-19.83 146.559-21.6 11.708-.417 23.441-.271 35.15.062 5.525.154 11.041.338 16.554.704 4.125.275 8.908 1.263 13.025.821 1.775-.187 2.42-1.191.454-1.954-2.946-1.137-7.358-.842-10.467-1.2-11.245-1.292-22.533-2.32-33.841-2.896-49.609-2.52-99.042.275-147.959 9.009-55.125 9.845-115.304 33.05-125.32 37.437-2.38 1.046-4.759 2.35-7.442 2.238-4.459-.192-8.221-3.675-8.784-8.092-.533-4.204 1.946-8.296 5.896-9.817 7.167-2.716 14.367-5.308 21.588-7.837 83.375-122.034 31.3-205.188-12.521-246.975-6.813-6.496-.171-17.705 8.746-14.688 104.2 35.22 239.167 88.817 353.483 212.875a955.114 955.114 0 0 1-23.187-109.48c89.746-54.05 189.862-89.84 296.208-103.07.192 2.754.504 5.483 1.05 8.17-70.346 16.984-135.216 54.53-212.725 112.943C462.977 635.933 537.82 801.49 644.69 921.69c-10.796 10.213-19.617 20.267-26.596 29.538-62.7-60.559-116.696-131.68-159.917-210.725m283.967 271.392c-16.738-12.584-32.946-26.18-48.65-40.613 6.404-4.262 13.229-7.942 20.612-10.925 8.255 6.938 16.65 13.667 25.225 20.108l2.813 2.117 2.812-2.117c11.646-8.754 22.971-18.029 34.025-27.695a65.578 65.578 0 0 1 21.413 9.579c-18.65 17.829-38.088 34.387-58.25 49.546m14.837-60.95c3.438-.234 6.663-.167 9.796.029-8.062 6.858-16.262 13.504-24.633 19.879-5.97-4.542-11.83-9.258-17.638-14.05 9.913-3 20.621-5.054 32.475-5.858m721.343-354.326c-7.167-2.716-14.371-5.308-21.588-7.837-83.375-122.034-31.3-205.188 12.521-246.975 6.812-6.496.17-17.705-8.746-14.688-104.2 35.22-239.167 88.817-353.488 212.875a954.234 954.234 0 0 0 23.192-109.48c-26.975-16.245-54.92-30.782-83.654-43.624-11.738 6.3-26.967 13.187-46.742 19.825l-8.312 2.55c17.745 11.908 35.729 24.975 54.175 39.292-23.571 181.2-94.35 341.975-195.642 461.08a132.994 132.994 0 0 0-17.221-10.005c101.008-112.304 169.08-265.9 191.346-437.084l.342-2.658-2.117-1.646c-16.783-13.025-32.92-24.68-48.663-35.283a134.2 134.2 0 0 1-5.804 7.383c15.084 10.138 30.538 21.25 46.6 33.654-22.529 169.417-90.391 321.167-190.767 431.68-18.791-7.442-41.941-11.742-69.375-8.463-29.858 3.571-55.15 13.871-75.979 27.417C568.206 802.862 493.62 643.329 469.765 464.045c66.52-49.946 125.962-85.842 193.937-101.5a73.082 73.082 0 0 1-5.412-8.354c-68.767 16.525-128.963 53.237-196.338 104.012l-2.18 1.642.355 2.704c23.638 181.775 98.925 343.73 210.459 457.455-20.805 15.162-36.6 33.475-47.296 50.967-22.113 36.154-53.734 51.175-78.188 55.933-24.45 4.758-62.362-9.517-64.33-42.175-1.037-17.188 7.947-31.796 16.697-41.825l9.212 24.646 25.467-63.725-67.125 14.25 21.479 12.845c-39.004 32.471-29.946 67.25-24.48 82.967 6.243 17.95 32.776 53.063 87.655 49.421 54.883-3.642 91.038-35.633 113.667-63.983 1.233-1.546 2.562-2.93 3.837-4.409 24.009 19.78 48.984 38.221 74.963 55.017 116.617-75.392 214.388-182.075 284.017-309.442 23.125-6.708 44.925-5.95 61.133-3.404-6.762-15.02-15.742-29.02-26.279-41.675a194.856 194.856 0 0 0-17.613-18.542c-.529-.487-5.812-4.746-1.879-4.354 1.859.183 4.934 3.333 6.417 4.413 46.113 33.691 58.833 69.17 60.096 72.875 1.125 3.291 1.825 7.15 4.662 9.454 7.505 6.1 18.271-2.604 14-11.25-2.32-4.613-4.862-9.08-7.537-13.459 22.179-45.379 63.67-50.962 93.875-47.966a271.86 271.86 0 0 0-8.25-7.242c-23.246-19.537-51.317-33.192-79.971-42.737a279.877 279.877 0 0 0-20.754-6.017c-3.633-.904-7.263-1.8-10.93-2.567-2.15-.45-5.112-.583-7.124-1.504-1.092-.5-2.767-1.262-.575-2.112.82-.321 3.091.42 3.912.533 6.242.854 12.45 1.8 18.646 2.946 30.27 5.596 59.87 15.796 86.55 31.22 34.35 19.859 48.196 38.534 50.833 42.088 3.088 4.163 6.33 10.983 12.905 9.571 6.937-1.488 8.766-7.508 4.137-12.883-3.12-3.625-6.333-7.117-9.596-10.546 30.075-60.95 91.13-80.834 140.217-86.342a626.715 626.715 0 0 0-30.887-9.083c-48.03-12.763-96.913-19.83-146.559-21.6-11.708-.417-23.442-.271-35.15.062-5.525.154-11.042.338-16.554.704-4.125.275-8.908 1.263-13.025.821-1.775-.187-2.42-1.191-.454-1.954 2.941-1.137 7.358-.842 10.466-1.2 11.246-1.292 22.534-2.32 33.842-2.896 49.608-2.52 99.042.275 147.959 9.009 55.125 9.845 115.304 33.05 125.32 37.437 2.38 1.046 4.759 2.35 7.442 2.238 4.458-.192 8.221-3.675 8.783-8.092.534-4.204-1.945-8.296-5.895-9.817m-474.63 341.584c25.113 26.162 28.642 64.9 5.62 93.796-22.966 28.82-62.657 35.804-97.157 28.416-32.596-6.979-62.396-25.987-84.346-50.95a827.345 827.345 0 0 0 35.979-31.425c3.608 4.917 7.358 9.725 11.52 14.238 23.113 25.054 62.488 45.008 96.51 30.767 15.59-6.525 28.174-22.092 29.416-39.225 1.104-15.255-6.43-29.5-16.384-40.688l-9.112 24.37c-8.463-21.174-16.92-42.353-25.383-63.528 22.308 4.733 44.612 9.47 66.92 14.204-7.187 4.3-14.379 8.6-21.57 12.9 3.904 3.296 7.075 6.175 7.987 7.125M544.452 335.295a754.508 754.508 0 0 0-126.467 47.096c56.3-90.354 135.359-132.213 183.855-150.421 15.487 8.458 26.904 15.97 34.67 21.587-49.058 18.946-77.716 49.834-91.037 67.68-3 4.02-3.475 9.287-1.238 13.75.059.112.155.196.217.308M631.327 4.649c-1.087-4.138 4.554-6.504 6.73-2.82 20.274 34.345 63.3 100.807 123.9 160.978-40.921-23.108-75.863-49.32-104.313-74.033-12.096-33.017-20.921-63.588-26.317-84.125m214.396 247.95c8.771 2.938 9.696 11.092 11.592 16.871a3996.447 3996.447 0 0 1 5.45 16.712c-34.475 9.192-47.821-15.558-45.284-29.758-18.704-9.43-23.3-19.812-23.3-19.812s38.746 11.7 51.542 15.987m-298.025-56.337c77.217 30.354 108.633 60.766 108.633 60.766-57.987 17.288-90.337 52.921-103.091 70.005-1.813 2.433.108 5.575 2.775 5.575.425 0 .87-.08 1.32-.255 34.017-8.983 68.963-15.766 103.225-19.12-7.558 45.645 40.03 76.487 79.526 76.487.887 0 1.77-.012 2.65-.046 25.95-.925 44.875-3.716 61.558-3.712 20.817 0 38.13 4.346 61.18 22.075l-15.997 30.896 33.655-6.696-32.363 40.45c1.192.025 2.37.037 3.546.037 82.742 0 117.596-64.662 117.596-64.662l-29.971 6.5a26.768 26.768 0 0 1-21.5-4.588c-33.004-24.237-42.154-46.237-42.154-46.237l113.675 12.816a6.59 6.59 0 0 1 5.833 7.05l-1.058 13.925c33.729-11.32 54.066-23.308 65.504-31.754 6.233-4.608 4.867-14.279-2.383-17.02l-123.634-56.742a66.536 66.536 0 0 1-36.441-42.984l-.088-.325c-2.775-10.175-6.35-22.304-24.996-27.687-154.396-44.571-258.05-152.871-297.02-199.55-.98-1.175-2.226-1.68-3.443-1.68-2.887 0-5.629 2.838-4.341 6.238 17.979 47.404 60.412 145.613 117.279 188.517-52.85-20.938-102.338-24.542-130.146-24.542-3.037 0-5.82.042-8.32.113-3.467.091-4.238 4.883-1.01 6.15"/>
    <path d="M846.357 535c0-.416-.096-1.083-.296-2.083V530.5c0-5.791 1.546-11.5 4.634-17.166 3.091-5.709 7.225-9.959 12.408-12.709V497c-2.787.209-7.175.5-13.154.917-7.18.375-12.313.625-15.4.75-3.092.083-6.83.125-11.217.125l-14.95 35.583-63.696 150.417-85.22-186c-8.176 0-14.955-.083-20.338-.292-5.38-.208-11.858-.666-19.438-1.5v3.625c12.163 8.542 18.242 18.709 18.242 30.5l-23.62 174c-1.197 9.584-3.838 17.75-7.926 24.542s-9.42 11.25-16 13.459l-3.887 4.791c7.975-1.208 14.454-2 19.437-2.416 4.984-.375 9.771-.584 14.354-.584 5.184 0 11.413.25 18.692.75 7.275.5 14.4 1.25 21.38 2.25l-2.092-5.083c-5.584-2.417-9.621-5.542-12.113-9.417-2.492-3.916-3.737-8.916-3.737-15.125 0-3 .1-4.958.3-5.958l15.845-121.708c4.588 9.375 18.342 37.958 41.267 85.791 8.175 17.167 14.204 29.834 18.092 38s6.579 13.709 8.075 16.584a561.465 561.465 0 0 0 3.737 7.166 446.969 446.969 0 0 1 2.692 5.25c.996 1.584 2.092 2.792 3.287 3.584s3.092 1.208 5.684 1.208c1.991 0 3.737-.5 5.233-1.5s2.542-1.917 3.138-2.708l63.096-152.5 17.945 132.458v1.208c.196.417.296.709.296.917 0 2.792-.646 4.917-1.941 6.417s-3.142 3.125-5.534 4.958c-3.387 2.375-5.083 4.458-5.083 6.25v4.208c8.77-1.416 16.246-2.375 22.43-2.875 6.178-.458 12.257-.708 18.237-.708 5.383 0 11.116.292 17.195.875s13.209 1.583 21.384 3v-4.792c-7.18-2.791-12.909-6.666-17.196-11.666-4.288-4.959-7.03-11.375-8.225-19.125z"/>
  </g>
</svg>