<svg viewBox="0 0 500 500" xmlns="http://www.w3.org/2000/svg" xml:space="preserve" style="fill-rule:evenodd;clip-rule:evenodd;stroke-linejoin:round;stroke-miterlimit:2">
  <style>circle{fill:#242a35}path{fill:#ebebeb}@media (prefers-color-scheme:dark){circle{fill:#ebebeb}path{fill:#242a35}}</style>
  <circle cx="250" cy="250" r="250"/>
  <path d="M364.934 153.38c0-.458-.106-1.194-.327-2.297v-2.666c0-6.387 1.705-12.683 5.111-18.932 3.409-6.297 7.969-10.984 13.685-14.017v-3.998c-3.074.231-7.913.551-14.508 1.011-7.918.414-13.58.69-16.984.828-3.41.091-7.533.137-12.372.137l-16.488 39.245L252.8 318.587l-93.989-205.141c-9.018 0-16.494-.091-22.431-.322-5.934-.229-13.079-.734-21.439-1.654v3.998c13.415 9.421 20.12 20.634 20.12 33.639L109.01 341.012c-1.32 10.571-4.233 19.577-8.742 27.068-4.508 7.491-10.389 12.408-17.646 14.844l-4.287 5.284c8.796-1.332 15.941-2.206 21.437-2.665 5.497-.413 10.777-.644 15.831-.644 5.718 0 12.588.276 20.616.827a322.07 322.07 0 0 1 23.58 2.482l-2.307-5.606c-6.159-2.666-10.612-6.112-13.36-10.386-2.748-4.319-4.122-9.834-4.122-16.682 0-3.308.111-5.468.331-6.571l17.476-134.232c5.06 10.339 20.229 41.864 45.514 94.619 9.016 18.934 15.665 32.904 19.953 41.911 4.288 9.006 7.256 15.119 8.906 18.29a616.848 616.848 0 0 0 4.122 7.904 492.884 492.884 0 0 1 2.969 5.79c1.098 1.747 2.307 3.079 3.625 3.953 1.318.873 3.41 1.332 6.269 1.332 2.196 0 4.122-.551 5.772-1.654 1.649-1.103 2.803-2.115 3.46-2.987l69.589-168.193 19.792 146.089v1.332c.216.46.327.782.327 1.011 0 3.079-.713 5.423-2.141 7.078-1.428 1.654-3.466 3.446-6.104 5.468-3.735 2.619-5.606 4.916-5.606 6.893v4.641c9.673-1.562 17.918-2.619 24.738-3.171 6.814-.505 13.519-.781 20.114-.781 5.937 0 12.26.322 18.965.965 6.704.643 14.568 1.746 23.584 3.309v-5.285c-7.919-3.078-14.237-7.352-18.965-12.867-4.73-5.469-7.754-12.545-9.072-21.093L364.934 153.38Z" style="fill-rule:nonzero"/>
</svg>
