<svg clip-rule="evenodd" fill-rule="evenodd" stroke-linejoin="round" stroke-miterlimit="2" viewBox="0 0 500 500" xmlns="http://www.w3.org/2000/svg" xmlns:xlink="http://www.w3.org/1999/xlink"><clipPath id="a"><path clip-rule="evenodd" d="m0 0h500v500h-500z"/></clipPath><path d="m0 0h500v500h-500z" fill="none"/><g clip-path="url(#a)" fill-rule="nonzero"><path d="m494.682 203.184-237.007-173.532c-4.557-3.337-10.791-3.337-15.348 0l-237.009 173.532c-5.789 4.239-7.047 12.368-2.808 18.157 4.24 5.789 12.369 7.045 18.158 2.808l229.332-167.914 229.333 167.913c2.221 1.632 4.907 2.512 7.664 2.51 4 0 7.947-1.841 10.492-5.318 4.24-5.788 2.982-13.917-2.807-18.156z"/><path d="m431.881 227.089c-7.174 0-12.992 5.817-12.992 12.991v206.786h-103.927v-112.877c0-35.82-29.143-64.96-64.961-64.96s-64.961 29.142-64.961 64.96v112.878h-103.928v-206.786c0-7.174-5.818-12.991-12.991-12.991-7.174 0-12.992 5.817-12.992 12.991v219.778c0 7.175 5.818 12.991 12.992 12.991h129.91c6.832 0 12.423-5.278 12.941-11.979.031-.304.051-.636.051-1.012v-125.869c0-21.493 17.485-38.978 38.978-38.978s38.979 17.486 38.979 38.978v125.869c0 .374.019.7.05 1 .512 6.706 6.105 11.991 12.941 11.991h129.911c7.174 0 12.991-5.816 12.991-12.991v-219.778c-.001-7.175-5.818-12.992-12.992-12.992z"/></g></svg>