<svg clip-rule="evenodd" fill-rule="evenodd" stroke-linejoin="round" stroke-miterlimit="2" viewBox="0 0 500 500" xmlns="http://www.w3.org/2000/svg"><path d="m0 0h500v500h-500z" fill="none"/><g fill-rule="nonzero"><path d="m19.21 303.571c5.769 0 11.48-2.577 15.249-7.5l8.366-10.865c12.518 74.266 64.536 137.803 138.379 163.436 22.73 7.885 46.056 11.673 69.075 11.673 68.92 0 135.245-33.999 174.955-93.862 5.865-8.846 3.442-20.788-5.403-26.653-8.885-5.904-20.769-3.442-26.673 5.404-43.248 65.267-125.226 92.881-199.319 67.113-61.479-21.346-104.362-74.863-113.516-137.015l16.461 12.673c8.442 6.442 20.499 4.904 26.961-3.519 6.48-8.423 4.923-20.48-3.5-26.961 0 0-45.479-35.018-45.595-35.095-9.557-7.365-23.153-11.499-31.806-.211l-38.845 50.44c-6.481 8.423-4.923 20.48 3.5 26.961 3.481 2.673 7.615 3.981 11.711 3.981z"/><path d="m80.169 160.21c8.827 5.865 20.769 3.442 26.673-5.403 43.248-65.248 125.303-92.863 199.319-67.113 61.479 21.345 104.362 74.862 113.516 137.014l-16.461-12.673c-8.442-6.461-20.499-4.923-26.961 3.519-6.48 8.423-4.923 20.48 3.5 26.961 0 0 45.479 34.999 45.595 35.095 9.73 7.48 23.018 11.673 31.806.211l38.845-50.44c6.481-8.423 4.923-20.48-3.5-26.961-8.423-6.48-20.499-4.903-26.96 3.519l-8.366 10.865c-12.518-74.266-64.536-137.802-138.379-163.436-90.766-31.499-191.071 2.288-244.03 82.17-5.865 8.865-3.442 20.788 5.403 26.672z"/></g></svg>